<mxfile host="app.diagrams.net" modified="2020-06-17T12:16:20.458Z" agent="5.0 (Windows NT 6.1; Win64; x64) AppleWebKit/537.36 (KHTML, like Gecko) Chrome/83.0.4103.97 Safari/537.36" etag="oR0F4zvcZbQYVkFhLDzK" version="13.2.4" type="github">
  <diagram id="gCQPRdWzaqj0PH66_X0w" name="Page-1">
    <mxGraphModel dx="1422" dy="712" grid="1" gridSize="14" guides="1" tooltips="1" connect="1" arrows="1" fold="1" page="1" pageScale="1" pageWidth="827" pageHeight="1169" math="0" shadow="0">
      <root>
        <mxCell id="0" />
        <mxCell id="1" parent="0" />
        <mxCell id="WOGHGQuo0FZu75Chtuqg-1" value="&lt;b&gt;&lt;font color=&quot;#0000ff&quot;&gt;1. 产品表（运营提供）&lt;/font&gt;&lt;/b&gt;" style="rounded=0;whiteSpace=wrap;html=1;" vertex="1" parent="1">
          <mxGeometry x="28" y="12" width="127" height="28" as="geometry" />
        </mxCell>
        <mxCell id="WOGHGQuo0FZu75Chtuqg-2" value="&lt;font style=&quot;font-size: 14px&quot;&gt;游戏客户端&lt;/font&gt;" style="whiteSpace=wrap;html=1;aspect=fixed;align=left;labelPosition=center;verticalLabelPosition=middle;verticalAlign=top;" vertex="1" parent="1">
          <mxGeometry x="28" y="294" width="210" height="210" as="geometry" />
        </mxCell>
        <mxCell id="WOGHGQuo0FZu75Chtuqg-3" value="初见SDK" style="rounded=0;whiteSpace=wrap;html=1;align=center;" vertex="1" parent="1">
          <mxGeometry x="112" y="311" width="120" height="42" as="geometry" />
        </mxCell>
        <mxCell id="WOGHGQuo0FZu75Chtuqg-4" value="三方支付SDK" style="rounded=0;whiteSpace=wrap;html=1;align=center;" vertex="1" parent="1">
          <mxGeometry x="112" y="448" width="120" height="42" as="geometry" />
        </mxCell>
        <mxCell id="WOGHGQuo0FZu75Chtuqg-6" value="&lt;font style=&quot;font-size: 14px&quot;&gt;支付中心&lt;/font&gt;" style="whiteSpace=wrap;html=1;aspect=fixed;align=left;verticalAlign=top;" vertex="1" parent="1">
          <mxGeometry x="546" y="294" width="224" height="224" as="geometry" />
        </mxCell>
        <mxCell id="cGqOs7ZhyZZcwNVCAng--152" value="" style="shape=table;html=1;whiteSpace=wrap;startSize=0;container=1;collapsible=0;childLayout=tableLayout;" parent="1" vertex="1">
          <mxGeometry x="28" y="40" width="698" height="157" as="geometry" />
        </mxCell>
        <mxCell id="cGqOs7ZhyZZcwNVCAng--153" value="" style="shape=partialRectangle;html=1;whiteSpace=wrap;collapsible=0;dropTarget=0;pointerEvents=0;fillColor=none;top=0;left=0;bottom=0;right=0;points=[[0,0.5],[1,0.5]];portConstraint=eastwest;" parent="cGqOs7ZhyZZcwNVCAng--152" vertex="1">
          <mxGeometry width="698" height="44" as="geometry" />
        </mxCell>
        <mxCell id="cGqOs7ZhyZZcwNVCAng--154" value="产品ID&lt;br&gt;（发货参照）" style="shape=partialRectangle;html=1;whiteSpace=wrap;connectable=0;overflow=hidden;fillColor=none;top=0;left=0;bottom=0;right=0;" parent="cGqOs7ZhyZZcwNVCAng--153" vertex="1">
          <mxGeometry width="99" height="44" as="geometry" />
        </mxCell>
        <mxCell id="cGqOs7ZhyZZcwNVCAng--155" value="内购产品ID （支付使用）&lt;br&gt;(苹果，谷歌，华为海外)" style="shape=partialRectangle;html=1;whiteSpace=wrap;connectable=0;overflow=hidden;fillColor=none;top=0;left=0;bottom=0;right=0;" parent="cGqOs7ZhyZZcwNVCAng--153" vertex="1">
          <mxGeometry x="99" width="182" height="44" as="geometry" />
        </mxCell>
        <mxCell id="cGqOs7ZhyZZcwNVCAng--156" value="价格(元）" style="shape=partialRectangle;html=1;whiteSpace=wrap;connectable=0;overflow=hidden;fillColor=none;top=0;left=0;bottom=0;right=0;" parent="cGqOs7ZhyZZcwNVCAng--153" vertex="1">
          <mxGeometry x="281" width="70" height="44" as="geometry" />
        </mxCell>
        <mxCell id="cGqOs7ZhyZZcwNVCAng--157" value="国际标准货币类型&lt;br&gt;（CNY,USD,TWD等）" style="shape=partialRectangle;html=1;whiteSpace=wrap;connectable=0;overflow=hidden;fillColor=none;top=0;left=0;bottom=0;right=0;" parent="cGqOs7ZhyZZcwNVCAng--153" vertex="1">
          <mxGeometry x="351" width="126" height="44" as="geometry" />
        </mxCell>
        <mxCell id="cGqOs7ZhyZZcwNVCAng--158" value="商品数量" style="shape=partialRectangle;html=1;whiteSpace=wrap;connectable=0;overflow=hidden;fillColor=none;top=0;left=0;bottom=0;right=0;" parent="cGqOs7ZhyZZcwNVCAng--153" vertex="1">
          <mxGeometry x="477" width="56" height="44" as="geometry" />
        </mxCell>
        <mxCell id="cGqOs7ZhyZZcwNVCAng--159" value="产品名称" style="shape=partialRectangle;html=1;whiteSpace=wrap;connectable=0;overflow=hidden;fillColor=none;top=0;left=0;bottom=0;right=0;" parent="cGqOs7ZhyZZcwNVCAng--153" vertex="1">
          <mxGeometry x="533" width="98" height="44" as="geometry" />
        </mxCell>
        <mxCell id="cGqOs7ZhyZZcwNVCAng--211" value="产品类型" style="shape=partialRectangle;html=1;whiteSpace=wrap;connectable=0;overflow=hidden;fillColor=none;top=0;left=0;bottom=0;right=0;" parent="cGqOs7ZhyZZcwNVCAng--153" vertex="1">
          <mxGeometry x="631" width="67" height="44" as="geometry" />
        </mxCell>
        <mxCell id="cGqOs7ZhyZZcwNVCAng--160" value="" style="shape=partialRectangle;html=1;whiteSpace=wrap;collapsible=0;dropTarget=0;pointerEvents=0;fillColor=none;top=0;left=0;bottom=0;right=0;points=[[0,0.5],[1,0.5]];portConstraint=eastwest;" parent="cGqOs7ZhyZZcwNVCAng--152" vertex="1">
          <mxGeometry y="44" width="698" height="29" as="geometry" />
        </mxCell>
        <mxCell id="cGqOs7ZhyZZcwNVCAng--161" value="P101" style="shape=partialRectangle;html=1;whiteSpace=wrap;connectable=0;overflow=hidden;fillColor=none;top=0;left=0;bottom=0;right=0;" parent="cGqOs7ZhyZZcwNVCAng--160" vertex="1">
          <mxGeometry width="99" height="29" as="geometry" />
        </mxCell>
        <mxCell id="cGqOs7ZhyZZcwNVCAng--162" value="CP101" style="shape=partialRectangle;html=1;whiteSpace=wrap;connectable=0;overflow=hidden;fillColor=none;top=0;left=0;bottom=0;right=0;" parent="cGqOs7ZhyZZcwNVCAng--160" vertex="1">
          <mxGeometry x="99" width="182" height="29" as="geometry" />
        </mxCell>
        <mxCell id="cGqOs7ZhyZZcwNVCAng--163" value="6" style="shape=partialRectangle;html=1;whiteSpace=wrap;connectable=0;overflow=hidden;fillColor=none;top=0;left=0;bottom=0;right=0;" parent="cGqOs7ZhyZZcwNVCAng--160" vertex="1">
          <mxGeometry x="281" width="70" height="29" as="geometry" />
        </mxCell>
        <mxCell id="cGqOs7ZhyZZcwNVCAng--164" value="CNY" style="shape=partialRectangle;html=1;whiteSpace=wrap;connectable=0;overflow=hidden;fillColor=none;top=0;left=0;bottom=0;right=0;" parent="cGqOs7ZhyZZcwNVCAng--160" vertex="1">
          <mxGeometry x="351" width="126" height="29" as="geometry" />
        </mxCell>
        <mxCell id="cGqOs7ZhyZZcwNVCAng--165" value="60" style="shape=partialRectangle;html=1;whiteSpace=wrap;connectable=0;overflow=hidden;fillColor=none;top=0;left=0;bottom=0;right=0;" parent="cGqOs7ZhyZZcwNVCAng--160" vertex="1">
          <mxGeometry x="477" width="56" height="29" as="geometry" />
        </mxCell>
        <mxCell id="cGqOs7ZhyZZcwNVCAng--166" value="60元宝" style="shape=partialRectangle;html=1;whiteSpace=wrap;connectable=0;overflow=hidden;fillColor=none;top=0;left=0;bottom=0;right=0;" parent="cGqOs7ZhyZZcwNVCAng--160" vertex="1">
          <mxGeometry x="533" width="98" height="29" as="geometry" />
        </mxCell>
        <mxCell id="cGqOs7ZhyZZcwNVCAng--212" value="正常商品" style="shape=partialRectangle;html=1;whiteSpace=wrap;connectable=0;overflow=hidden;fillColor=none;top=0;left=0;bottom=0;right=0;" parent="cGqOs7ZhyZZcwNVCAng--160" vertex="1">
          <mxGeometry x="631" width="67" height="29" as="geometry" />
        </mxCell>
        <mxCell id="cGqOs7ZhyZZcwNVCAng--167" value="" style="shape=partialRectangle;html=1;whiteSpace=wrap;collapsible=0;dropTarget=0;pointerEvents=0;fillColor=none;top=0;left=0;bottom=0;right=0;points=[[0,0.5],[1,0.5]];portConstraint=eastwest;" parent="cGqOs7ZhyZZcwNVCAng--152" vertex="1">
          <mxGeometry y="73" width="698" height="28" as="geometry" />
        </mxCell>
        <mxCell id="cGqOs7ZhyZZcwNVCAng--168" value="P102" style="shape=partialRectangle;html=1;whiteSpace=wrap;connectable=0;overflow=hidden;fillColor=none;top=0;left=0;bottom=0;right=0;" parent="cGqOs7ZhyZZcwNVCAng--167" vertex="1">
          <mxGeometry width="99" height="28" as="geometry" />
        </mxCell>
        <mxCell id="cGqOs7ZhyZZcwNVCAng--169" value="CP102" style="shape=partialRectangle;html=1;whiteSpace=wrap;connectable=0;overflow=hidden;fillColor=none;top=0;left=0;bottom=0;right=0;" parent="cGqOs7ZhyZZcwNVCAng--167" vertex="1">
          <mxGeometry x="99" width="182" height="28" as="geometry" />
        </mxCell>
        <mxCell id="cGqOs7ZhyZZcwNVCAng--170" value="30" style="shape=partialRectangle;html=1;whiteSpace=wrap;connectable=0;overflow=hidden;fillColor=none;top=0;left=0;bottom=0;right=0;" parent="cGqOs7ZhyZZcwNVCAng--167" vertex="1">
          <mxGeometry x="281" width="70" height="28" as="geometry" />
        </mxCell>
        <mxCell id="cGqOs7ZhyZZcwNVCAng--171" value="CNY" style="shape=partialRectangle;html=1;whiteSpace=wrap;connectable=0;overflow=hidden;fillColor=none;top=0;left=0;bottom=0;right=0;" parent="cGqOs7ZhyZZcwNVCAng--167" vertex="1">
          <mxGeometry x="351" width="126" height="28" as="geometry" />
        </mxCell>
        <mxCell id="cGqOs7ZhyZZcwNVCAng--172" value="300" style="shape=partialRectangle;html=1;whiteSpace=wrap;connectable=0;overflow=hidden;fillColor=none;top=0;left=0;bottom=0;right=0;" parent="cGqOs7ZhyZZcwNVCAng--167" vertex="1">
          <mxGeometry x="477" width="56" height="28" as="geometry" />
        </mxCell>
        <mxCell id="cGqOs7ZhyZZcwNVCAng--173" value="300元宝" style="shape=partialRectangle;html=1;whiteSpace=wrap;connectable=0;overflow=hidden;fillColor=none;top=0;left=0;bottom=0;right=0;" parent="cGqOs7ZhyZZcwNVCAng--167" vertex="1">
          <mxGeometry x="533" width="98" height="28" as="geometry" />
        </mxCell>
        <mxCell id="cGqOs7ZhyZZcwNVCAng--213" value="正常商品" style="shape=partialRectangle;html=1;whiteSpace=wrap;connectable=0;overflow=hidden;fillColor=none;top=0;left=0;bottom=0;right=0;" parent="cGqOs7ZhyZZcwNVCAng--167" vertex="1">
          <mxGeometry x="631" width="67" height="28" as="geometry" />
        </mxCell>
        <mxCell id="cGqOs7ZhyZZcwNVCAng--174" value="" style="shape=partialRectangle;html=1;whiteSpace=wrap;collapsible=0;dropTarget=0;pointerEvents=0;fillColor=none;top=0;left=0;bottom=0;right=0;points=[[0,0.5],[1,0.5]];portConstraint=eastwest;" parent="cGqOs7ZhyZZcwNVCAng--152" vertex="1">
          <mxGeometry y="101" width="698" height="28" as="geometry" />
        </mxCell>
        <mxCell id="cGqOs7ZhyZZcwNVCAng--175" value="P201" style="shape=partialRectangle;html=1;whiteSpace=wrap;connectable=0;overflow=hidden;fillColor=none;top=0;left=0;bottom=0;right=0;" parent="cGqOs7ZhyZZcwNVCAng--174" vertex="1">
          <mxGeometry width="99" height="28" as="geometry" />
        </mxCell>
        <mxCell id="cGqOs7ZhyZZcwNVCAng--176" value="CP200" style="shape=partialRectangle;html=1;whiteSpace=wrap;connectable=0;overflow=hidden;fillColor=none;top=0;left=0;bottom=0;right=0;" parent="cGqOs7ZhyZZcwNVCAng--174" vertex="1">
          <mxGeometry x="99" width="182" height="28" as="geometry" />
        </mxCell>
        <mxCell id="cGqOs7ZhyZZcwNVCAng--177" value="6" style="shape=partialRectangle;html=1;whiteSpace=wrap;connectable=0;overflow=hidden;fillColor=none;top=0;left=0;bottom=0;right=0;" parent="cGqOs7ZhyZZcwNVCAng--174" vertex="1">
          <mxGeometry x="281" width="70" height="28" as="geometry" />
        </mxCell>
        <mxCell id="cGqOs7ZhyZZcwNVCAng--178" value="CNY" style="shape=partialRectangle;html=1;whiteSpace=wrap;connectable=0;overflow=hidden;fillColor=none;top=0;left=0;bottom=0;right=0;" parent="cGqOs7ZhyZZcwNVCAng--174" vertex="1">
          <mxGeometry x="351" width="126" height="28" as="geometry" />
        </mxCell>
        <mxCell id="cGqOs7ZhyZZcwNVCAng--179" value="1" style="shape=partialRectangle;html=1;whiteSpace=wrap;connectable=0;overflow=hidden;fillColor=none;top=0;left=0;bottom=0;right=0;" parent="cGqOs7ZhyZZcwNVCAng--174" vertex="1">
          <mxGeometry x="477" width="56" height="28" as="geometry" />
        </mxCell>
        <mxCell id="cGqOs7ZhyZZcwNVCAng--180" value="成长礼包" style="shape=partialRectangle;html=1;whiteSpace=wrap;connectable=0;overflow=hidden;fillColor=none;top=0;left=0;bottom=0;right=0;" parent="cGqOs7ZhyZZcwNVCAng--174" vertex="1">
          <mxGeometry x="533" width="98" height="28" as="geometry" />
        </mxCell>
        <mxCell id="cGqOs7ZhyZZcwNVCAng--214" value="礼包商品" style="shape=partialRectangle;html=1;whiteSpace=wrap;connectable=0;overflow=hidden;fillColor=none;top=0;left=0;bottom=0;right=0;" parent="cGqOs7ZhyZZcwNVCAng--174" vertex="1">
          <mxGeometry x="631" width="67" height="28" as="geometry" />
        </mxCell>
        <mxCell id="cGqOs7ZhyZZcwNVCAng--215" style="shape=partialRectangle;html=1;whiteSpace=wrap;collapsible=0;dropTarget=0;pointerEvents=0;fillColor=none;top=0;left=0;bottom=0;right=0;points=[[0,0.5],[1,0.5]];portConstraint=eastwest;" parent="cGqOs7ZhyZZcwNVCAng--152" vertex="1">
          <mxGeometry y="129" width="698" height="28" as="geometry" />
        </mxCell>
        <mxCell id="cGqOs7ZhyZZcwNVCAng--216" value="P202" style="shape=partialRectangle;html=1;whiteSpace=wrap;connectable=0;overflow=hidden;fillColor=none;top=0;left=0;bottom=0;right=0;" parent="cGqOs7ZhyZZcwNVCAng--215" vertex="1">
          <mxGeometry width="99" height="28" as="geometry" />
        </mxCell>
        <mxCell id="cGqOs7ZhyZZcwNVCAng--217" value="CP200" style="shape=partialRectangle;html=1;whiteSpace=wrap;connectable=0;overflow=hidden;fillColor=none;top=0;left=0;bottom=0;right=0;" parent="cGqOs7ZhyZZcwNVCAng--215" vertex="1">
          <mxGeometry x="99" width="182" height="28" as="geometry" />
        </mxCell>
        <mxCell id="cGqOs7ZhyZZcwNVCAng--218" value="6" style="shape=partialRectangle;html=1;whiteSpace=wrap;connectable=0;overflow=hidden;fillColor=none;top=0;left=0;bottom=0;right=0;" parent="cGqOs7ZhyZZcwNVCAng--215" vertex="1">
          <mxGeometry x="281" width="70" height="28" as="geometry" />
        </mxCell>
        <mxCell id="cGqOs7ZhyZZcwNVCAng--219" value="CNY" style="shape=partialRectangle;html=1;whiteSpace=wrap;connectable=0;overflow=hidden;fillColor=none;top=0;left=0;bottom=0;right=0;" parent="cGqOs7ZhyZZcwNVCAng--215" vertex="1">
          <mxGeometry x="351" width="126" height="28" as="geometry" />
        </mxCell>
        <mxCell id="cGqOs7ZhyZZcwNVCAng--220" value="1" style="shape=partialRectangle;html=1;whiteSpace=wrap;connectable=0;overflow=hidden;fillColor=none;top=0;left=0;bottom=0;right=0;" parent="cGqOs7ZhyZZcwNVCAng--215" vertex="1">
          <mxGeometry x="477" width="56" height="28" as="geometry" />
        </mxCell>
        <mxCell id="cGqOs7ZhyZZcwNVCAng--221" value="成长礼包" style="shape=partialRectangle;html=1;whiteSpace=wrap;connectable=0;overflow=hidden;fillColor=none;top=0;left=0;bottom=0;right=0;" parent="cGqOs7ZhyZZcwNVCAng--215" vertex="1">
          <mxGeometry x="533" width="98" height="28" as="geometry" />
        </mxCell>
        <mxCell id="cGqOs7ZhyZZcwNVCAng--222" value="礼包商品" style="shape=partialRectangle;html=1;whiteSpace=wrap;connectable=0;overflow=hidden;fillColor=none;top=0;left=0;bottom=0;right=0;" parent="cGqOs7ZhyZZcwNVCAng--215" vertex="1">
          <mxGeometry x="631" width="67" height="28" as="geometry" />
        </mxCell>
        <mxCell id="WOGHGQuo0FZu75Chtuqg-8" value="&lt;font style=&quot;font-size: 14px&quot;&gt;三方支付服务器&lt;/font&gt;" style="whiteSpace=wrap;html=1;aspect=fixed;align=left;verticalAlign=top;" vertex="1" parent="1">
          <mxGeometry x="28" y="700" width="224" height="224" as="geometry" />
        </mxCell>
        <mxCell id="WOGHGQuo0FZu75Chtuqg-9" value="&lt;font style=&quot;font-size: 14px&quot;&gt;游戏服务器&lt;/font&gt;" style="whiteSpace=wrap;html=1;aspect=fixed;align=left;verticalAlign=top;" vertex="1" parent="1">
          <mxGeometry x="378" y="700" width="224" height="224" as="geometry" />
        </mxCell>
        <mxCell id="WOGHGQuo0FZu75Chtuqg-11" value="&amp;nbsp; &amp;nbsp; 订单库" style="strokeWidth=2;html=1;shape=mxgraph.flowchart.database;whiteSpace=wrap;align=left;verticalAlign=middle;" vertex="1" parent="1">
          <mxGeometry x="700" y="616" width="70" height="74" as="geometry" />
        </mxCell>
        <mxCell id="WOGHGQuo0FZu75Chtuqg-12" value="" style="endArrow=classic;html=1;entryX=-0.009;entryY=0.156;entryDx=0;entryDy=0;entryPerimeter=0;" edge="1" parent="1">
          <mxGeometry width="50" height="50" relative="1" as="geometry">
            <mxPoint x="232" y="322" as="sourcePoint" />
            <mxPoint x="543.9839999999999" y="320.94399999999996" as="targetPoint" />
            <Array as="points" />
          </mxGeometry>
        </mxCell>
        <mxCell id="WOGHGQuo0FZu75Chtuqg-13" value="1.&amp;nbsp; 下单 (P101,CP101,6,CNY,60,user001,role001)" style="text;html=1;align=center;verticalAlign=middle;resizable=0;points=[];autosize=1;" vertex="1" parent="1">
          <mxGeometry x="252" y="294" width="280" height="28" as="geometry" />
        </mxCell>
        <mxCell id="WOGHGQuo0FZu75Chtuqg-14" value="" style="endArrow=classic;html=1;entryX=0.5;entryY=0;entryDx=0;entryDy=0;entryPerimeter=0;" edge="1" parent="1" target="WOGHGQuo0FZu75Chtuqg-11">
          <mxGeometry width="50" height="50" relative="1" as="geometry">
            <mxPoint x="735" y="518" as="sourcePoint" />
            <mxPoint x="726" y="546" as="targetPoint" />
          </mxGeometry>
        </mxCell>
        <mxCell id="WOGHGQuo0FZu75Chtuqg-15" value="&lt;div&gt;&lt;span&gt;2. 保存订单&lt;/span&gt;&lt;/div&gt;&amp;nbsp;(CJ001，P101,CP101,6,CNY,60,user001,role001)" style="text;html=1;align=center;verticalAlign=middle;resizable=0;points=[];autosize=1;" vertex="1" parent="1">
          <mxGeometry x="553" y="546" width="294" height="42" as="geometry" />
        </mxCell>
      </root>
    </mxGraphModel>
  </diagram>
</mxfile>
